<svg width="18" height="18" viewBox="0 0 18 18" fill="none" xmlns="http://www.w3.org/2000/svg">
<path d="M16.95 18C14.8667 18 12.8083 17.546 10.775 16.638C8.7417 15.729 6.8917 14.442 5.225 12.775C3.5583 11.108 2.2708 9.258 1.3625 7.225C0.4542 5.192 0 3.133 0 1.05C0 0.75 0.1 0.5 0.3 0.3C0.5 0.1 0.75 0 1.05 0H5.1C5.3333 0 5.5417 0.079 5.725 0.237C5.9083 0.396 6.0167 0.583 6.05 0.8L6.7 4.3C6.7333 4.567 6.725 4.792 6.675 4.975C6.625 5.158 6.5333 5.317 6.4 5.45L3.975 7.9C4.3083 8.517 4.7042 9.113 5.1625 9.688C5.6208 10.262 6.125 10.817 6.675 11.35C7.1917 11.867 7.7333 12.346 8.3 12.788C8.8667 13.229 9.4667 13.633 10.1 14L12.45 11.65C12.6 11.5 12.7958 11.387 13.0375 11.312C13.2792 11.238 13.5167 11.217 13.75 11.25L17.2 11.95C17.4333 12.017 17.625 12.137 17.775 12.312C17.925 12.488 18 12.683 18 12.9V16.95C18 17.25 17.9 17.5 17.7 17.7C17.5 17.9 17.25 18 16.95 18ZM3.025 6L4.675 4.35L4.25 2H2.025C2.1083 2.683 2.225 3.358 2.375 4.025C2.525 4.692 2.7417 5.35 3.025 6ZM11.975 14.95C12.625 15.233 13.2875 15.458 13.9625 15.625C14.6375 15.792 15.3167 15.9 16 15.95V13.75L13.65 13.275L11.975 14.95Z" fill="#127FD2"/>
</svg>
