<svg width="24" height="24" viewBox="0 0 24 24" fill="none" xmlns="http://www.w3.org/2000/svg">
<path d="M12 5C11.45 5 10.979 4.804 10.588 4.412C10.196 4.021 10 3.55 10 3C10 2.45 10.196 1.979 10.588 1.587C10.979 1.196 11.45 1 12 1C12.55 1 13.021 1.196 13.412 1.587C13.804 1.979 14 2.45 14 3C14 3.55 13.804 4.021 13.412 4.412C13.021 4.804 12.55 5 12 5ZM9 21V8C8 7.917 6.983 7.792 5.95 7.625C4.917 7.458 3.933 7.25 3 7L3.5 5C4.8 5.35 6.183 5.604 7.65 5.762C9.117 5.921 10.567 6 12 6C13.433 6 14.883 5.921 16.35 5.762C17.817 5.604 19.2 5.35 20.5 5L21 7C20.067 7.25 19.083 7.458 18.05 7.625C17.017 7.792 16 7.917 15 8V21H13V15H11V21H9Z" fill="#127FD2"/>
</svg>
